<mxfile host="app.diagrams.net" agent="Mozilla/5.0 (Macintosh; Intel Mac OS X 10_15_7) AppleWebKit/605.1.15 (KHTML, like Gecko) Version/18.0 Safari/605.1.15" version="26.1.1">
  <diagram name="Page-1" id="MTz7UBCe1wjMll_lIDmM">
    <mxGraphModel dx="1158" dy="785" grid="1" gridSize="10" guides="1" tooltips="1" connect="1" arrows="1" fold="1" page="1" pageScale="1" pageWidth="850" pageHeight="1100" math="0" shadow="0">
      <root>
        <mxCell id="0" />
        <mxCell id="1" parent="0" />
        <mxCell id="jeuFtyrJmXuXBJ76AJS7-9" value="" style="edgeStyle=orthogonalEdgeStyle;rounded=0;orthogonalLoop=1;jettySize=auto;html=1;" edge="1" parent="1" source="WpcHmx0HG_S5RKRfII9L-1" target="WpcHmx0HG_S5RKRfII9L-8">
          <mxGeometry relative="1" as="geometry" />
        </mxCell>
        <mxCell id="WpcHmx0HG_S5RKRfII9L-1" value="&lt;font style=&quot;font-size: 12px;&quot;&gt;&lt;span style=&quot;text-align: start;&quot; data-end=&quot;275&quot; data-start=&quot;226&quot;&gt;&lt;code data-end=&quot;263&quot; data-start=&quot;228&quot;&gt;&lt;font face=&quot;Helvetica&quot;&gt;S&lt;/font&gt;&lt;font face=&quot;Helvetica&quot;&gt;erialConsoleWriteString(&quot;HELLO&quot;)&lt;/font&gt;&lt;/code&gt;&amp;nbsp;is called&lt;/span&gt;&lt;span style=&quot;font-family: Helvetica; text-align: start;&quot;&gt;&amp;nbsp;to send a message&lt;/span&gt;&lt;/font&gt;" style="rounded=0;whiteSpace=wrap;html=1;" parent="1" vertex="1">
          <mxGeometry x="323" y="90" width="205" height="60" as="geometry" />
        </mxCell>
        <mxCell id="jeuFtyrJmXuXBJ76AJS7-11" value="" style="edgeStyle=orthogonalEdgeStyle;rounded=0;orthogonalLoop=1;jettySize=auto;html=1;" edge="1" parent="1" source="WpcHmx0HG_S5RKRfII9L-6" target="jeuFtyrJmXuXBJ76AJS7-4">
          <mxGeometry relative="1" as="geometry" />
        </mxCell>
        <mxCell id="WpcHmx0HG_S5RKRfII9L-6" value="&lt;font style=&quot;font-size: 12px;&quot;&gt;&lt;span style=&quot;text-align: start;&quot; data-end=&quot;335&quot; data-start=&quot;298&quot;&gt;Characters are stored in&amp;nbsp;&lt;code data-end=&quot;333&quot; data-start=&quot;325&quot;&gt;&lt;font face=&quot;Helvetica&quot;&gt;cbufTx&lt;/font&gt;&lt;/code&gt;&lt;/span&gt;&lt;span style=&quot;font-family: Helvetica; text-align: start;&quot;&gt;&amp;nbsp;using&amp;nbsp;&lt;/span&gt;&lt;code style=&quot;text-align: start;&quot; data-end=&quot;374&quot; data-start=&quot;342&quot;&gt;&lt;font face=&quot;Helvetica&quot;&gt;circular_buf_put(cbufTx, data)&lt;/font&gt;&lt;/code&gt;&lt;/font&gt;" style="rounded=0;whiteSpace=wrap;html=1;" parent="1" vertex="1">
          <mxGeometry x="303" y="310" width="245" height="70" as="geometry" />
        </mxCell>
        <mxCell id="WpcHmx0HG_S5RKRfII9L-18" value="" style="edgeStyle=orthogonalEdgeStyle;rounded=0;orthogonalLoop=1;jettySize=auto;html=1;" parent="1" source="WpcHmx0HG_S5RKRfII9L-7" target="WpcHmx0HG_S5RKRfII9L-9" edge="1">
          <mxGeometry relative="1" as="geometry" />
        </mxCell>
        <mxCell id="WpcHmx0HG_S5RKRfII9L-7" value="&lt;font style=&quot;font-size: 12px;&quot;&gt;&lt;code style=&quot;text-align: start;&quot; data-end=&quot;509&quot; data-start=&quot;485&quot;&gt;&lt;font face=&quot;Helvetica&quot;&gt;usart_write_callback()&lt;/font&gt;&lt;/code&gt;&lt;span style=&quot;font-family: Helvetica; text-align: start;&quot;&gt;&amp;nbsp;is triggered to start transmission&lt;/span&gt;&lt;/font&gt;" style="rounded=0;whiteSpace=wrap;html=1;" parent="1" vertex="1">
          <mxGeometry x="348" y="530" width="155" height="60" as="geometry" />
        </mxCell>
        <mxCell id="jeuFtyrJmXuXBJ76AJS7-8" value="" style="edgeStyle=orthogonalEdgeStyle;rounded=0;orthogonalLoop=1;jettySize=auto;html=1;" edge="1" parent="1" source="WpcHmx0HG_S5RKRfII9L-8" target="WpcHmx0HG_S5RKRfII9L-6">
          <mxGeometry relative="1" as="geometry" />
        </mxCell>
        <mxCell id="jeuFtyrJmXuXBJ76AJS7-10" style="edgeStyle=orthogonalEdgeStyle;rounded=0;orthogonalLoop=1;jettySize=auto;html=1;exitX=0;exitY=0.5;exitDx=0;exitDy=0;entryX=0;entryY=0.5;entryDx=0;entryDy=0;" edge="1" parent="1" source="WpcHmx0HG_S5RKRfII9L-8" target="WpcHmx0HG_S5RKRfII9L-1">
          <mxGeometry relative="1" as="geometry" />
        </mxCell>
        <mxCell id="WpcHmx0HG_S5RKRfII9L-8" value="UART idle?" style="rhombus;whiteSpace=wrap;html=1;" parent="1" vertex="1">
          <mxGeometry x="328" y="185" width="195" height="80" as="geometry" />
        </mxCell>
        <mxCell id="WpcHmx0HG_S5RKRfII9L-19" value="" style="edgeStyle=orthogonalEdgeStyle;rounded=0;orthogonalLoop=1;jettySize=auto;html=1;" parent="1" source="WpcHmx0HG_S5RKRfII9L-9" target="WpcHmx0HG_S5RKRfII9L-10" edge="1">
          <mxGeometry relative="1" as="geometry" />
        </mxCell>
        <mxCell id="WpcHmx0HG_S5RKRfII9L-9" value="&lt;font style=&quot;font-size: 12px;&quot;&gt;&lt;span style=&quot;text-align: start;&quot; data-end=&quot;618&quot; data-start=&quot;549&quot;&gt;&lt;code data-end=&quot;587&quot; data-start=&quot;551&quot;&gt;&lt;font face=&quot;Helvetica&quot;&gt;circular_buf_get(cbufTx, latestTx)&lt;/font&gt;&lt;/code&gt;&amp;nbsp;retrieves the next character&lt;/span&gt;&lt;span style=&quot;text-align: start;&quot;&gt;&amp;nbsp;from the buffer&lt;/span&gt;&lt;/font&gt;" style="rounded=0;whiteSpace=wrap;html=1;" parent="1" vertex="1">
          <mxGeometry x="308.25" y="630" width="234.5" height="60" as="geometry" />
        </mxCell>
        <mxCell id="WpcHmx0HG_S5RKRfII9L-20" value="" style="edgeStyle=orthogonalEdgeStyle;rounded=0;orthogonalLoop=1;jettySize=auto;html=1;" parent="1" source="WpcHmx0HG_S5RKRfII9L-10" target="WpcHmx0HG_S5RKRfII9L-11" edge="1">
          <mxGeometry relative="1" as="geometry" />
        </mxCell>
        <mxCell id="WpcHmx0HG_S5RKRfII9L-10" value="&lt;font style=&quot;font-size: 12px;&quot;&gt;&lt;span style=&quot;text-align: start;&quot; data-end=&quot;698&quot; data-start=&quot;639&quot;&gt;&lt;code data-end=&quot;667&quot; data-start=&quot;641&quot;&gt;&lt;font face=&quot;Helvetica&quot;&gt;usart_write_buffer_job()&lt;/font&gt;&lt;/code&gt;&amp;nbsp;sends the character via UART&lt;/span&gt;&lt;span style=&quot;text-align: start;&quot;&gt;&amp;nbsp;hardware&lt;/span&gt;&lt;/font&gt;" style="rounded=0;whiteSpace=wrap;html=1;" parent="1" vertex="1">
          <mxGeometry x="338.25" y="730" width="174.5" height="60" as="geometry" />
        </mxCell>
        <mxCell id="WpcHmx0HG_S5RKRfII9L-21" value="" style="edgeStyle=orthogonalEdgeStyle;rounded=0;orthogonalLoop=1;jettySize=auto;html=1;" parent="1" source="WpcHmx0HG_S5RKRfII9L-11" target="WpcHmx0HG_S5RKRfII9L-12" edge="1">
          <mxGeometry relative="1" as="geometry" />
        </mxCell>
        <mxCell id="WpcHmx0HG_S5RKRfII9L-11" value="&lt;font style=&quot;font-size: 12px;&quot;&gt;&lt;span style=&quot;text-align: start;&quot; data-end=&quot;794&quot; data-start=&quot;753&quot;&gt;UART hardware transmits the character&lt;/span&gt;&lt;span style=&quot;text-align: start;&quot;&gt;&amp;nbsp;to the connected PC&lt;/span&gt;&lt;/font&gt;" style="rounded=0;whiteSpace=wrap;html=1;" parent="1" vertex="1">
          <mxGeometry x="365.5" y="830" width="120" height="60" as="geometry" />
        </mxCell>
        <mxCell id="WpcHmx0HG_S5RKRfII9L-22" value="" style="edgeStyle=orthogonalEdgeStyle;rounded=0;orthogonalLoop=1;jettySize=auto;html=1;" parent="1" source="WpcHmx0HG_S5RKRfII9L-12" target="WpcHmx0HG_S5RKRfII9L-13" edge="1">
          <mxGeometry relative="1" as="geometry" />
        </mxCell>
        <mxCell id="WpcHmx0HG_S5RKRfII9L-12" value="&lt;span style=&quot;text-align: start;&quot;&gt;&lt;font style=&quot;font-size: 12px;&quot;&gt;PC receives and displays the character&lt;/font&gt;&lt;/span&gt;" style="rounded=0;whiteSpace=wrap;html=1;" parent="1" vertex="1">
          <mxGeometry x="365.5" y="930" width="120" height="60" as="geometry" />
        </mxCell>
        <mxCell id="WpcHmx0HG_S5RKRfII9L-23" value="" style="edgeStyle=orthogonalEdgeStyle;rounded=0;orthogonalLoop=1;jettySize=auto;html=1;" parent="1" source="WpcHmx0HG_S5RKRfII9L-13" target="WpcHmx0HG_S5RKRfII9L-14" edge="1">
          <mxGeometry relative="1" as="geometry" />
        </mxCell>
        <mxCell id="WpcHmx0HG_S5RKRfII9L-24" style="edgeStyle=orthogonalEdgeStyle;rounded=0;orthogonalLoop=1;jettySize=auto;html=1;exitX=0;exitY=0.5;exitDx=0;exitDy=0;entryX=0;entryY=0.5;entryDx=0;entryDy=0;" parent="1" source="WpcHmx0HG_S5RKRfII9L-13" target="WpcHmx0HG_S5RKRfII9L-10" edge="1">
          <mxGeometry relative="1" as="geometry" />
        </mxCell>
        <mxCell id="WpcHmx0HG_S5RKRfII9L-13" value="&lt;font style=&quot;font-size: 12px;&quot;&gt;&lt;span style=&quot;text-align: start;&quot; data-end=&quot;962&quot; data-start=&quot;927&quot;&gt;&lt;code data-end=&quot;940&quot; data-start=&quot;932&quot;&gt;&lt;font face=&quot;Helvetica&quot;&gt;cbufTx&lt;/font&gt;&lt;/code&gt;&amp;nbsp;still contains data?&lt;/span&gt;&lt;/font&gt;" style="rhombus;whiteSpace=wrap;html=1;" parent="1" vertex="1">
          <mxGeometry x="338.25" y="1030" width="174.5" height="80" as="geometry" />
        </mxCell>
        <mxCell id="WpcHmx0HG_S5RKRfII9L-14" value="End" style="rounded=0;whiteSpace=wrap;html=1;" parent="1" vertex="1">
          <mxGeometry x="560" y="1040" width="120" height="60" as="geometry" />
        </mxCell>
        <mxCell id="WpcHmx0HG_S5RKRfII9L-26" value="No" style="text;html=1;align=center;verticalAlign=middle;whiteSpace=wrap;rounded=0;" parent="1" vertex="1">
          <mxGeometry x="248.25" y="160" width="60" height="30" as="geometry" />
        </mxCell>
        <mxCell id="WpcHmx0HG_S5RKRfII9L-28" value="Yes" style="text;html=1;align=center;verticalAlign=middle;whiteSpace=wrap;rounded=0;" parent="1" vertex="1">
          <mxGeometry x="260" y="890" width="60" height="30" as="geometry" />
        </mxCell>
        <mxCell id="WpcHmx0HG_S5RKRfII9L-29" value="No" style="text;html=1;align=center;verticalAlign=middle;whiteSpace=wrap;rounded=0;" parent="1" vertex="1">
          <mxGeometry x="503" y="1040" width="60" height="30" as="geometry" />
        </mxCell>
        <mxCell id="WpcHmx0HG_S5RKRfII9L-30" value="From circular_buffer.c" style="text;html=1;align=center;verticalAlign=middle;whiteSpace=wrap;rounded=0;" parent="1" vertex="1">
          <mxGeometry x="563" y="330" width="60" height="30" as="geometry" />
        </mxCell>
        <mxCell id="WpcHmx0HG_S5RKRfII9L-31" value="From SerialConsole.c" style="text;html=1;align=center;verticalAlign=middle;whiteSpace=wrap;rounded=0;" parent="1" vertex="1">
          <mxGeometry x="542.75" y="545" width="60" height="30" as="geometry" />
        </mxCell>
        <mxCell id="WpcHmx0HG_S5RKRfII9L-32" value="From circular_buffer.c" style="text;html=1;align=center;verticalAlign=middle;whiteSpace=wrap;rounded=0;" parent="1" vertex="1">
          <mxGeometry x="560" y="645" width="60" height="30" as="geometry" />
        </mxCell>
        <mxCell id="WpcHmx0HG_S5RKRfII9L-33" value="From usart_interrupt.c" style="text;html=1;align=center;verticalAlign=middle;whiteSpace=wrap;rounded=0;" parent="1" vertex="1">
          <mxGeometry x="542.75" y="745" width="60" height="30" as="geometry" />
        </mxCell>
        <mxCell id="WpcHmx0HG_S5RKRfII9L-34" value="From SerialConsole.c" style="text;html=1;align=center;verticalAlign=middle;whiteSpace=wrap;rounded=0;" parent="1" vertex="1">
          <mxGeometry x="548" y="105" width="60" height="30" as="geometry" />
        </mxCell>
        <mxCell id="jeuFtyrJmXuXBJ76AJS7-2" value="&lt;font style=&quot;font-size: 12px;&quot;&gt;&lt;span style=&quot;text-align: start;&quot; data-end=&quot;698&quot; data-start=&quot;639&quot;&gt;&lt;code data-end=&quot;667&quot; data-start=&quot;641&quot;&gt;&lt;font face=&quot;Helvetica&quot;&gt;usart_write_buffer_job()&lt;/font&gt;&lt;/code&gt;&amp;nbsp;sends the character via UART&lt;/span&gt;&lt;span style=&quot;text-align: start;&quot;&gt;&amp;nbsp;hardware&lt;/span&gt;&lt;/font&gt;" style="rounded=0;whiteSpace=wrap;html=1;" vertex="1" parent="1">
          <mxGeometry x="338.25" y="730" width="174.5" height="60" as="geometry" />
        </mxCell>
        <mxCell id="jeuFtyrJmXuXBJ76AJS7-7" value="" style="edgeStyle=orthogonalEdgeStyle;rounded=0;orthogonalLoop=1;jettySize=auto;html=1;" edge="1" parent="1" source="jeuFtyrJmXuXBJ76AJS7-4" target="WpcHmx0HG_S5RKRfII9L-7">
          <mxGeometry relative="1" as="geometry" />
        </mxCell>
        <mxCell id="jeuFtyrJmXuXBJ76AJS7-4" value="&lt;font style=&quot;font-size: 12px;&quot;&gt;&lt;span style=&quot;text-align: start;&quot; data-end=&quot;698&quot; data-start=&quot;639&quot;&gt;&lt;code data-end=&quot;667&quot; data-start=&quot;641&quot;&gt;&lt;font face=&quot;Helvetica&quot;&gt;usart_write_buffer_job()&lt;/font&gt;&lt;/code&gt;&amp;nbsp;sends the character via UART&lt;/span&gt;&lt;span style=&quot;text-align: start;&quot;&gt;&amp;nbsp;hardware&lt;/span&gt;&lt;/font&gt;" style="rounded=0;whiteSpace=wrap;html=1;" vertex="1" parent="1">
          <mxGeometry x="338.25" y="420" width="174.5" height="60" as="geometry" />
        </mxCell>
        <mxCell id="jeuFtyrJmXuXBJ76AJS7-5" value="From usart_interrupt.c" style="text;html=1;align=center;verticalAlign=middle;whiteSpace=wrap;rounded=0;" vertex="1" parent="1">
          <mxGeometry x="540" y="435" width="60" height="30" as="geometry" />
        </mxCell>
      </root>
    </mxGraphModel>
  </diagram>
</mxfile>
